<svg width="400" height="400" viewBox="0 0 400 400" fill="none" xmlns="http://www.w3.org/2000/svg">
<rect width="350" height="350" fill="#F5F5F5"/>
<rect x="0.5" y="0.5" width="399" height="399" fill="black"/>
<rect x="0.5" y="0.5" width="399" height="399" stroke="black"/>
<path d="M218.056 34.0689C214.574 45.2474 213.202 55.816 213.202 70.5512C213.202 79.1891 213.624 87.9286 214.257 89.7578C214.785 91.6886 215.101 93.5178 214.785 93.7211C214.468 94.0259 212.252 93.4162 209.824 92.5016C207.291 91.4854 200.748 89.6562 195.26 88.2335C186.501 86.0994 182.279 85.6929 162.544 85.2864C149.879 85.0832 141.964 85.1848 144.602 85.6929C151.251 86.8108 165.604 89.7578 169.404 90.8757C170.461 91.1152 172.361 91.6371 174.457 92.2126C175.917 92.6136 177.472 93.0406 178.902 93.4162C182.385 94.3308 187.345 95.9568 189.983 96.973L200.537 101.038C209.824 104.696 225.866 112.318 232.198 116.078C247.818 125.529 251.195 127.764 251.195 128.577C251.195 129.086 250.773 129.492 250.14 129.492C249.612 129.492 249.084 130.407 249.084 131.524C249.084 132.642 249.506 133.557 249.928 133.557C250.667 133.557 257.316 141.28 259.849 145.04C260.588 146.26 265.337 141.28 268.714 135.691C270.825 132.236 270.614 129.797 268.081 127.46C267.764 127.155 265.97 124.614 264.176 121.87C260.588 116.586 261.01 114.96 265.126 117.704C268.397 119.94 269.031 119.736 268.292 116.789C267.87 115.367 265.442 113.029 262.593 111.302C256.577 107.542 252.25 101.648 251.512 95.7535C251.089 92.4 249.928 90.4692 246.762 87.5221C237.37 78.3761 225.866 58.7631 222.7 46.1619C219.534 33.0527 218.901 31.4268 218.056 34.0689Z" fill="#D9D9D9"/>
<path d="M218.056 34.0689C214.574 45.2474 213.202 55.816 213.202 70.5512C213.202 79.1891 213.624 87.9286 214.257 89.7578C214.785 91.6886 215.101 93.5178 214.785 93.7211C214.468 94.0259 212.252 93.4162 209.824 92.5016C207.291 91.4854 200.748 89.6562 195.26 88.2335C186.501 86.0994 182.279 85.6929 162.544 85.2864C149.879 85.0832 141.964 85.1848 144.602 85.6929C151.251 86.8108 165.604 89.7578 169.404 90.8757C170.461 91.1152 172.361 91.6371 174.457 92.2126C175.917 92.6136 177.472 93.0406 178.902 93.4162C182.385 94.3308 187.345 95.9568 189.983 96.973L200.537 101.038C209.824 104.696 225.866 112.318 232.198 116.078C247.818 125.529 251.195 127.764 251.195 128.577C251.195 129.086 250.773 129.492 250.14 129.492C249.612 129.492 249.084 130.407 249.084 131.524C249.084 132.642 249.506 133.557 249.928 133.557C250.667 133.557 257.316 141.28 259.849 145.04C260.588 146.26 265.337 141.28 268.714 135.691C270.825 132.236 270.614 129.797 268.081 127.46C267.764 127.155 265.97 124.614 264.176 121.87C260.588 116.586 261.01 114.96 265.126 117.704C268.397 119.94 269.031 119.736 268.292 116.789C267.87 115.367 265.442 113.029 262.593 111.302C256.577 107.542 252.25 101.648 251.512 95.7535C251.089 92.4 249.928 90.4692 246.762 87.5221C237.37 78.3761 225.866 58.7631 222.7 46.1619C219.534 33.0527 218.901 31.4268 218.056 34.0689Z" stroke="black"/>
<path d="M156.739 101.038C166.976 103.07 185.762 108.863 193.255 112.216C219.428 123.801 239.691 143.414 252.567 169.43C254.678 173.799 256.472 178.068 256.472 178.881C256.472 179.795 256.999 181.421 257.633 182.539C259.532 185.994 261.643 195.953 263.332 209.672C264.176 216.684 265.126 222.476 265.337 222.68C266.181 223.493 280.64 215.464 284.756 211.806C291.193 206.318 294.148 201.542 294.993 195.445L295.732 189.957L292.249 193.108C288.133 196.766 282.856 199.611 280.006 199.611C278.529 199.611 277.474 197.782 275.574 191.685C273.041 184.063 267.025 170.954 260.904 160.284C253.517 147.378 235.259 128.07 223.227 120.448C212.885 113.944 208.98 111.912 197.793 107.643C185.129 102.766 173.519 100.327 159.377 99.6153L147.241 99.0056L156.739 101.038Z" fill="#D9D9D9"/>
<path d="M156.739 101.038C166.976 103.07 185.762 108.863 193.255 112.216C219.428 123.801 239.691 143.414 252.567 169.43C254.678 173.799 256.472 178.068 256.472 178.881C256.472 179.795 256.999 181.421 257.633 182.539C259.532 185.994 261.643 195.953 263.332 209.672C264.176 216.684 265.126 222.476 265.337 222.68C266.181 223.493 280.64 215.464 284.756 211.806C291.193 206.318 294.148 201.542 294.993 195.445L295.732 189.957L292.249 193.108C288.133 196.766 282.856 199.611 280.006 199.611C278.529 199.611 277.474 197.782 275.574 191.685C273.041 184.063 267.025 170.954 260.904 160.284C253.517 147.378 235.259 128.07 223.227 120.448C212.885 113.944 208.98 111.912 197.793 107.643C185.129 102.766 173.519 100.327 159.377 99.6153L147.241 99.0056L156.739 101.038Z" stroke="#080808"/>
<g filter="url(#filter0_d_0_1)">
<path d="M149.879 110.692C139.431 119.025 120.118 127.765 105.343 130.915C103.654 131.321 102.388 131.931 102.388 132.338C102.388 132.744 104.709 134.065 107.453 135.386C117.479 140.162 117.479 140.061 110.303 146.361C106.82 149.308 101.965 152.865 99.5381 154.085C97.0052 155.406 95 156.727 95 157.133C95 157.641 97.0052 157.946 99.5381 157.946C106.82 157.946 107.242 158.658 105.554 166.787C102.81 179.897 103.971 201.136 108.298 215.363C111.464 225.728 112.203 227.761 115.791 235.179C124.339 252.658 140.064 268.308 162.333 281.722C167.926 284.974 186.184 293.815 193.677 296.762C197.16 298.185 200.959 299.709 202.12 300.217C206.025 301.843 214.785 304.384 224.283 306.823C252.461 313.733 273.147 326.842 281.801 343.305L283.384 346.252L283.7 341.577C284.123 334.667 278.529 315.664 273.358 306.823C262.487 288.124 253.306 280.096 217.529 258.044C216.579 257.434 215.629 256.825 215.312 256.52C214.996 256.215 212.885 254.69 210.563 253.065C208.241 251.439 205.92 249.609 205.286 249C204.759 248.288 201.17 245.544 197.371 242.801C180.063 230.098 162.438 209.265 155.895 194.022C150.09 180.303 150.935 162.926 158.006 152.357C166.343 139.858 177.847 134.776 199.798 133.862L213.307 133.252L210.985 130.915C204.442 124.208 183.862 113.537 166.976 108.253C161.594 106.526 157.161 105.103 156.95 105.204C156.845 105.204 153.679 107.745 149.879 110.692Z" fill="#404040"/>
<path d="M199.757 132.863L211.006 132.355L210.276 131.62L210.27 131.613C207.119 128.384 200.465 124.101 192.401 119.939C184.369 115.794 175.057 111.83 166.678 109.207L166.671 109.205C163.977 108.341 161.53 107.555 159.729 106.998C158.827 106.719 158.097 106.501 157.583 106.359C157.426 106.316 157.295 106.281 157.189 106.255C157.119 106.307 157.037 106.369 156.943 106.441C156.578 106.722 156.057 107.128 155.417 107.63C155.155 107.835 154.874 108.056 154.576 108.29C153.42 109.198 152.008 110.306 150.497 111.478C139.913 119.917 120.465 128.71 105.565 131.89C104.935 132.042 104.388 132.22 103.967 132.393C104.097 132.476 104.241 132.564 104.401 132.658C105.29 133.184 106.529 133.831 107.887 134.485C107.887 134.485 107.887 134.485 107.887 134.485L108.224 134.646C110.546 135.751 112.361 136.616 113.643 137.367C114.318 137.763 114.893 138.154 115.334 138.564C115.776 138.975 116.142 139.459 116.296 140.049C116.619 141.278 115.896 142.372 115.04 143.328C114.172 144.296 112.84 145.465 111.165 146.936L110.963 147.113L110.956 147.119L110.949 147.125C107.459 150.078 102.535 153.696 99.9941 154.975C98.7511 155.623 97.6523 156.264 96.8746 156.784C96.8668 156.789 96.859 156.794 96.8513 156.799C97.5618 156.893 98.4915 156.946 99.5381 156.946C101.351 156.946 102.831 156.988 103.971 157.201C105.119 157.416 106.118 157.838 106.739 158.759C107.335 159.643 107.436 160.779 107.348 162.046C107.258 163.333 106.954 164.965 106.533 166.991L106.533 166.992C103.826 179.922 104.972 200.99 109.254 215.071C112.41 225.404 113.132 227.386 116.69 234.741C125.128 251.994 140.686 267.514 162.842 280.861C168.397 284.09 186.598 292.903 194.043 295.831L194.043 295.831L194.055 295.836C195.187 296.299 196.358 296.774 197.462 297.222C199.729 298.142 201.715 298.949 202.513 299.297C206.344 300.891 215.026 303.413 224.526 305.853C252.756 312.777 273.737 325.947 282.621 342.717L282.702 341.516C282.702 341.515 282.702 341.514 282.702 341.513C282.8 339.913 282.549 337.529 282.007 334.66C281.469 331.809 280.657 328.543 279.668 325.208C277.686 318.521 275.022 311.648 272.495 307.327L272.493 307.325C267.098 298.045 262.15 291.456 254.125 284.444C246.069 277.404 234.894 269.922 217.004 258.895L216.996 258.89L216.988 258.886L216.982 258.882C216.512 258.58 216.029 258.27 215.624 257.997C215.241 257.739 214.85 257.463 214.619 257.24C214.619 257.24 214.619 257.24 214.619 257.24C214.617 257.238 214.607 257.229 214.586 257.212C214.562 257.191 214.529 257.164 214.488 257.131C214.405 257.065 214.295 256.98 214.159 256.877C213.888 256.672 213.528 256.406 213.102 256.097C212.251 255.479 211.147 254.695 209.99 253.884C207.663 252.254 205.286 250.388 204.593 249.72L204.533 249.662L204.483 249.595C204.484 249.596 204.479 249.59 204.468 249.577C204.458 249.565 204.443 249.548 204.423 249.527C204.383 249.485 204.33 249.431 204.261 249.366C204.123 249.235 203.94 249.072 203.713 248.878C203.259 248.492 202.655 248.007 201.942 247.452C200.516 246.344 198.68 244.979 196.786 243.611L196.779 243.607C179.366 230.827 161.606 209.862 154.976 194.417L154.974 194.412C149.066 180.447 149.88 162.704 157.175 151.801C161.437 145.411 166.539 140.882 173.392 137.851C180.218 134.831 188.723 133.322 199.756 132.863C199.756 132.863 199.756 132.863 199.757 132.863ZM95.7214 156.543C95.7214 156.543 95.7222 156.543 95.7238 156.544C95.7223 156.543 95.7215 156.543 95.7214 156.543Z" stroke="#404040" stroke-width="2"/>
</g>
<path d="M274.845 119.779L274.357 119.49L274.626 120.343C275.357 122.537 277.004 124.308 280.948 126.707L280.956 126.712L280.964 126.716C282.825 127.894 284.246 128.932 285.157 129.837C285.611 130.288 285.989 130.754 286.216 131.236C286.448 131.727 286.558 132.319 286.319 132.91C286.275 133.025 286.198 133.318 286.1 133.814C286.005 134.295 285.902 134.907 285.798 135.609C285.59 137.012 285.381 138.746 285.224 140.456C285.063 142.262 284.82 143.91 284.544 145.123C284.407 145.723 284.252 146.258 284.078 146.663C283.994 146.86 283.882 147.08 283.731 147.267C283.605 147.423 283.281 147.768 282.751 147.768C282.453 147.768 282.211 147.655 282.086 147.59C281.937 147.512 281.794 147.413 281.665 147.315C281.406 147.117 281.119 146.852 280.827 146.557C280.238 145.963 279.552 145.169 278.901 144.334L278.891 144.321L278.881 144.307C277.852 142.891 276.683 142.035 275.887 141.753C275.643 141.667 275.495 141.655 275.421 141.657C275.417 141.687 275.413 141.73 275.413 141.789C275.413 142.184 275.276 142.564 275.133 142.867C274.982 143.189 274.776 143.523 274.544 143.852C274.078 144.511 273.454 145.219 272.785 145.862L272.771 145.876L272.756 145.89C271.428 147.069 269.354 149.266 268.223 150.652L268.211 150.666L268.199 150.68L266.461 152.658L268.406 154.843L268.415 154.853L268.423 154.863C269.138 155.71 269.77 156.583 270.242 157.317C270.477 157.684 270.678 158.025 270.831 158.317C270.968 158.579 271.114 158.89 271.171 159.166L271.191 159.264C271.206 159.3 271.23 159.353 271.267 159.424C271.364 159.611 271.516 159.866 271.721 160.171C272.129 160.778 272.707 161.528 273.362 162.257L273.369 162.264L273.375 162.272C274.407 163.463 274.95 163.92 275.854 164.156C276.887 164.426 278.429 164.419 281.54 164.264L281.546 164.264C287.602 164.002 294.856 165.756 301.307 168.604C307.743 171.446 313.553 175.452 316.604 179.833L316.606 179.836C318.304 182.288 319.35 185.531 319.693 188.667C320.035 191.786 319.699 194.964 318.456 197.245L318.454 197.248C318.182 197.743 318.009 198.133 317.911 198.432C317.879 198.529 317.858 198.609 317.843 198.676C318.228 198.63 318.854 198.435 319.725 198.025C320.647 197.591 321.752 196.962 322.986 196.167C327.933 192.978 334.661 187.304 339.392 181.598C341.407 179.146 342.514 177.511 342.883 176.543C342.935 176.405 342.964 176.303 342.98 176.23C342.933 176.225 342.874 176.222 342.801 176.222H342.777L342.753 176.221C341.312 176.152 339.788 175.182 338.045 173.568C336.26 171.914 334.058 169.401 331.255 165.887L331.251 165.882C330.09 164.408 329.195 163.298 328.456 162.463C327.713 161.623 327.166 161.107 326.706 160.789C326.27 160.488 325.917 160.367 325.536 160.327C325.119 160.284 324.622 160.331 323.868 160.456C320.968 160.967 317.12 159.966 313.225 158.085C309.287 156.182 305.136 153.3 301.579 149.823C299.584 147.902 298.308 146.53 297.564 145.111C296.791 143.638 296.631 142.197 296.631 140.264C296.631 138.102 296.049 136.291 294.517 134.387C292.948 132.436 290.371 130.373 286.329 127.795L286.326 127.793C283.769 126.152 280.787 123.999 279.599 123.063C278.477 122.178 276.299 120.679 274.845 119.779ZM275.438 141.592C275.438 141.592 275.435 141.596 275.431 141.607C275.437 141.599 275.439 141.593 275.438 141.592ZM271.173 159.213C271.172 159.213 271.173 159.216 271.176 159.223C271.174 159.217 271.173 159.213 271.173 159.213ZM343.14 176.261C343.14 176.261 343.138 176.26 343.131 176.257C343.137 176.26 343.14 176.261 343.14 176.261Z" fill="#404040" stroke="#404040" stroke-width="2"/>
<path d="M206.732 160.798C205.512 161.323 204.427 161.817 203.536 162.248C204.157 162.303 204.852 162.367 205.605 162.438C208.288 162.693 211.777 163.049 215.423 163.456L215.424 163.456C223.541 164.37 230.65 165.029 235.724 165.383C238.264 165.561 240.28 165.661 241.654 165.679C241.863 165.682 242.054 165.683 242.228 165.682C242.158 165.596 242.084 165.508 242.005 165.42L241.975 165.386L241.949 165.351C241.414 164.63 238.453 160.557 235.491 156.176C232.839 152.398 231.051 150.221 229.835 149.289C229.212 148.811 228.969 148.841 228.959 148.843L228.959 148.843C228.957 148.844 228.953 148.845 228.943 148.85C228.932 148.857 228.908 148.873 228.872 148.91C228.799 148.988 228.697 149.133 228.583 149.388C228.412 149.816 228.04 150.173 227.728 150.438C227.364 150.747 226.886 151.085 226.322 151.445C225.19 152.168 223.627 153.033 221.728 153.998C217.926 155.931 212.706 158.303 206.732 160.798ZM242.821 166.604C242.821 166.604 242.82 166.602 242.819 166.598C242.82 166.602 242.821 166.604 242.821 166.604Z" fill="#404040" stroke="white" stroke-width="2"/>
<defs>
<filter id="filter0_d_0_1" x="91" y="105.199" width="196.723" height="249.053" filterUnits="userSpaceOnUse" color-interpolation-filters="sRGB">
<feFlood flood-opacity="0" result="BackgroundImageFix"/>
<feColorMatrix in="SourceAlpha" type="matrix" values="0 0 0 0 0 0 0 0 0 0 0 0 0 0 0 0 0 0 127 0" result="hardAlpha"/>
<feOffset dy="4"/>
<feGaussianBlur stdDeviation="2"/>
<feComposite in2="hardAlpha" operator="out"/>
<feColorMatrix type="matrix" values="0 0 0 0 0 0 0 0 0 0 0 0 0 0 0 0 0 0 0.25 0"/>
<feBlend mode="normal" in2="BackgroundImageFix" result="effect1_dropShadow_0_1"/>
<feBlend mode="normal" in="SourceGraphic" in2="effect1_dropShadow_0_1" result="shape"/>
</filter>
</defs>
</svg>
